<svg width="112" height="40" viewBox="0 0 112 40" fill="none" xmlns="http://www.w3.org/2000/svg">
<g clip-path="url(#clip0_3714_68936)">
<path d="M75.6533 28.9333H75.6266C70.8799 32.2933 65.2799 35.8133 59.2266 39.5199L58.9866 39.6533C58.9604 39.664 58.9371 39.6805 58.9182 39.7016C58.8994 39.7227 58.8856 39.7478 58.8779 39.775C58.8702 39.8022 58.8688 39.8308 58.8737 39.8587C58.8787 39.8865 58.8899 39.9129 58.9065 39.9357C58.9232 39.9586 58.9448 39.9774 58.9697 39.9907C58.9947 40.004 59.0223 40.0114 59.0506 40.0125C59.0789 40.0135 59.107 40.0081 59.1329 39.9967C59.1587 39.9853 59.1817 39.9682 59.1999 39.9466L59.3866 39.8399C64.5333 37.1733 70.4266 33.9999 76.3466 30.7199L76.4533 30.6666C76.1038 30.1307 75.8344 29.5468 75.6533 28.9333ZM106.8 3.70659C99.3333 -4.53341 51.1733 2.87992 30.7199 7.35992L30.2399 7.46659C30.193 7.47868 30.1516 7.5064 30.1225 7.54517C30.0934 7.58395 30.0784 7.63147 30.0799 7.67992C30.0825 7.70401 30.0906 7.72719 30.1034 7.74771C30.1163 7.76824 30.1337 7.78558 30.1542 7.79841C30.1748 7.81125 30.1979 7.81926 30.222 7.82183C30.2461 7.8244 30.2705 7.82147 30.2933 7.81325L30.7733 7.73325C47.7333 4.71992 83.0133 0.533254 90.5866 8.05325C92.9066 10.3466 92.3733 13.3066 89.6799 16.7999C91.1667 17.7713 92.2183 19.2818 92.6133 21.0133C103.093 14.0533 110.133 7.38659 106.8 3.70659Z" fill="#CC2427"/>
<path d="M35.4667 22.48C34.8818 22.4818 34.3124 22.6684 33.84 23.0133C33.3559 23.417 33.0417 23.9883 32.96 24.6133C32.8 25.44 32.88 26 33.2 26.3733C33.3864 26.5545 33.608 26.6953 33.8512 26.787C34.0943 26.8788 34.3538 26.9195 34.6133 26.9066C35.0174 26.9148 35.4183 26.8328 35.7867 26.6666C36.1423 26.5022 36.4465 26.2441 36.6667 25.92C36.9161 25.5492 37.0884 25.132 37.1733 24.6933C37.3067 23.9466 37.2 23.4133 36.8533 23.04C36.6764 22.852 36.4608 22.7046 36.2214 22.6079C35.982 22.5112 35.7245 22.4676 35.4667 22.48ZM27.1733 32.8266L29.3867 20.3466H33.3867L33.0667 21.9466C33.5047 21.3988 34.0863 20.9833 34.7467 20.7466C35.5686 20.4109 36.4456 20.2301 37.3333 20.2133C38.3733 20.2133 39.0133 20.2666 39.7867 20.6666C40.5199 21.0345 41.0901 21.6618 41.3867 22.4266C41.7009 23.2328 41.775 24.1126 41.6 24.96C41.489 25.6875 41.2337 26.3855 40.849 27.0129C40.4643 27.6403 39.9581 28.1844 39.36 28.6133C38.1333 29.4933 37.04 29.7333 35.4667 29.7333C34.9906 29.7421 34.5154 29.6883 34.0533 29.5733C33.7354 29.5041 33.4297 29.3873 33.1467 29.2266C32.8701 29.0272 32.6194 28.7943 32.4 28.5333L31.6533 32.8266H27.1733ZM73.3333 29.6H68.6933L71.04 16.64L75.5467 16.7466L73.3333 29.6ZM50.1867 20.24L50.5067 18.3466L55.2533 17.3333L54.7467 20.24H57.0933L56.64 22.1333H54.3733L53.0133 29.6H48.4L49.7867 22.1333H48.0533L48.4 20.2666H50.1867V20.24ZM13.2267 26.2666C11.984 26.5447 10.7134 26.6789 9.44002 26.6666C7.28002 26.6666 5.54668 25.6 5.65335 23.6C5.70668 22.2933 7.28002 19.52 11.2267 19.52C12.4768 19.4911 13.7085 19.8245 14.7733 20.48L15.3333 17.2533C13.9103 16.6881 12.3828 16.4335 10.8533 16.5066C5.65335 16.56 0.666684 18.9066 0.0533507 23.7066C-0.559983 28.5066 5.38668 29.8133 8.02668 29.8133C9.54668 29.8133 11.1467 29.7333 12.6133 29.6L13.2267 26.2666ZM63.8133 25.3333L63.04 25.5466L61.2533 25.8666C60.8307 25.9012 60.421 26.0287 60.0533 26.24C59.946 26.3004 59.8541 26.3847 59.7847 26.4865C59.7153 26.5883 59.6704 26.7047 59.6533 26.8266C59.6215 26.945 59.6275 27.0704 59.6705 27.1852C59.7136 27.3 59.7915 27.3984 59.8933 27.4666C60.1333 27.6266 60.5067 27.68 61.04 27.68C61.4366 27.6811 61.8315 27.6273 62.2133 27.52C62.5641 27.4173 62.8906 27.245 63.1733 27.0133C63.3602 26.8493 63.4986 26.6371 63.5733 26.4C63.6858 26.0525 63.7661 25.6955 63.8133 25.3333ZM68.72 22.2666C68.6933 22.72 68.6133 23.1466 68.5067 23.8133L67.68 28.48C67.636 28.6677 67.6569 28.8647 67.7392 29.0391C67.8215 29.2134 67.9604 29.3547 68.1333 29.44V29.6H63.36V28.4C62.6418 28.8273 61.8708 29.159 61.0667 29.3866C60.3177 29.5784 59.5463 29.6681 58.7733 29.6533C57.2533 29.6533 56.3733 29.4933 55.76 28.96C55.1467 28.4266 54.8533 28.0533 54.88 27.3066C54.9305 26.7956 55.1351 26.3121 55.4667 25.92C55.8154 25.5389 56.2431 25.2385 56.72 25.04C57.3218 24.771 57.9596 24.5913 58.6133 24.5066C59.4667 24.3733 60.64 24.24 62.2133 24.1066C62.7413 24.0556 63.2608 23.9392 63.76 23.76C64.08 23.6266 64.2133 23.4933 64.2667 23.2266C64.32 22.96 64.2133 22.48 63.5733 22.3466C61.8667 22 58.6667 22.56 57.0133 22.96L57.8933 20.56C60.0017 20.2247 62.132 20.0464 64.2667 20.0266C67.6533 20.0533 68.7467 21.04 68.72 22.2666ZM41.4667 29.6L43.12 20.2933H47.68L46.0267 29.6H41.4667ZM43.3867 18.16C43.52 17.3866 44.72 16.7733 46.08 16.7733C47.44 16.7733 48.4 17.3866 48.2667 18.16C48.1333 18.9333 46.9333 19.5466 45.5733 19.5466C44.2133 19.5466 43.2533 18.9066 43.3867 18.16ZM22.8 25.3066C22.5514 25.4074 22.2918 25.479 22.0267 25.52L20.2667 25.84C19.8349 25.8707 19.4157 25.9983 19.04 26.2133C18.932 26.2795 18.8401 26.3688 18.7709 26.4749C18.7017 26.581 18.657 26.7011 18.64 26.8266C18.6126 26.944 18.6237 27.067 18.6717 27.1775C18.7198 27.288 18.8022 27.38 18.9067 27.44C19.2475 27.6305 19.6377 27.7141 20.0267 27.68C20.4245 27.6721 20.8194 27.6093 21.2 27.4933C21.5508 27.3906 21.8773 27.2183 22.16 26.9866C22.3469 26.8226 22.4853 26.6105 22.56 26.3733C22.6894 26.0307 22.7702 25.6717 22.8 25.3066ZM27.7067 22.2666C27.68 22.72 27.6 23.12 27.4933 23.8133L26.6667 28.4533C26.6227 28.641 26.6436 28.8381 26.7259 29.0124C26.8082 29.1867 26.9471 29.328 27.12 29.4133V29.6H22.3467V28.4266C21.6221 28.8345 20.8524 29.1567 20.0533 29.3866C19.3145 29.5863 18.552 29.6849 17.7867 29.68C16.24 29.68 15.36 29.52 14.7733 28.9866C14.1867 28.4533 13.84 28.08 13.8667 27.3066C13.924 26.8054 14.1281 26.3323 14.4533 25.9466C14.8005 25.5572 15.2281 25.2478 15.7067 25.04C16.3209 24.7799 16.9663 24.6006 17.6267 24.5066C18.4533 24.3733 19.6267 24.24 21.2 24.1066C21.7329 24.0906 22.2579 23.973 22.7467 23.76C23.0933 23.6266 23.2 23.4933 23.2533 23.2266C23.3067 22.96 23.2 22.48 22.56 22.3466C20.8533 22.0266 17.6533 22.56 16 22.9866L16.88 20.56C18.9885 20.2257 21.1187 20.0475 23.2533 20.0266C26.64 20.0266 27.7333 21.0133 27.7067 22.2666Z" fill="#013D5B"/>
<path d="M91.8933 23.52L92.9333 23.4133C93.28 23.4133 93.5733 23.4933 93.6 23.8133C93.6266 24.1333 93.2533 25.4133 93.1733 25.76L92.4533 28.88C92.1866 30.16 91.8666 31.4933 91.6 32.56H93.4133L94.4266 27.6C97.5733 24.3467 98.7733 23.28 99.4933 23.28C99.5724 23.2716 99.6524 23.281 99.7274 23.3075C99.8024 23.334 99.8705 23.377 99.9267 23.4332C99.983 23.4895 100.026 23.5576 100.052 23.6326C100.079 23.7076 100.088 23.7876 100.08 23.8667C100.107 24.4267 99.7333 25.7333 99.6266 26.1067L98.56 29.7067C98.3466 30.5333 98.16 31.2533 98.1866 31.7867C98.2133 32.32 98.6933 32.9333 99.3866 32.9333C100.72 32.9333 101.707 31.5467 102.533 30.1867L102.293 29.7333C101.947 30.2667 101.173 31.4667 100.533 31.4667C100.347 31.4667 100.16 31.3333 100.16 31.0133C100.181 30.5146 100.271 30.0211 100.427 29.5467L101.6 25.3067C101.893 24.1333 102.053 23.3867 102.053 22.9867C102.053 22.5867 101.547 21.84 100.853 21.84C99.6533 21.84 98.0533 22.72 94.6933 26.5867H94.64L95.0666 24.6933C95.3066 23.6533 95.52 22.5867 95.7333 21.84C94.4698 22.289 93.1781 22.6542 91.8666 22.9333L91.8933 23.52ZM109.733 23.6267C109.707 22.88 109.333 22.3733 108.56 22.3733C106.693 22.3733 104.72 26.0267 104.373 27.4933C107.413 27.4933 109.813 25.68 109.733 23.6267ZM110.133 29.36L110.48 29.6C109.573 31.44 107.733 32.9333 105.547 32.9333C103.76 32.9333 102.32 31.76 102.24 29.5467C102.08 25.5467 105.84 21.84 108.88 21.84C110.187 21.84 111.413 22.4267 111.467 23.84C111.573 27.0133 107.12 27.9733 104.187 28.0267C104.09 28.4099 104.055 28.8057 104.08 29.2C104.133 30.5333 104.933 31.6267 106.56 31.6267C108.187 31.6267 109.413 30.48 110.133 29.36ZM78.6933 26.7733C78.7733 29.68 80.6133 32.0533 83.0133 32.0533C87.6533 32.0533 89.6266 26.3467 89.4933 22.5333C89.3866 19.6267 87.52 17.2533 85.12 17.2533C81.12 17.2533 78.5333 22.9333 78.6933 26.7733ZM76.24 26.6133C76.0533 21.6533 79.9466 16.5867 85.5733 16.5867C89.36 16.5867 91.8133 19.12 91.9466 22.96C92.1333 28.1867 88.5066 32.9867 82.6133 32.9867C78.8266 32.9867 76.3733 30.48 76.24 26.6133Z" fill="#013D5B"/>
</g>
<defs>
<clipPath id="clip0_3714_68936">
<rect width="111.467" height="40" fill="white"/>
</clipPath>
</defs>
</svg>
