<svg width="120" height="40" viewBox="0 0 120 40" fill="none" xmlns="http://www.w3.org/2000/svg">
<g clip-path="url(#clip0_3714_68947)">
<path d="M11.5528 7.92852H14.1815C15.7824 7.69267 17.4173 7.90003 18.9087 8.52806C20.7796 9.6537 22.1367 11.4659 22.6904 13.578C23.0824 14.6849 23.0824 14.6849 24.0278 14.2929H24.7657V5.53036H0.0231838V7.07533H1.03779C1.47869 7.07227 1.91468 7.16804 2.31371 7.35559C2.71275 7.54313 3.0647 7.8177 3.34371 8.15911C4.28913 9.68101 4.45055 11.3874 4.45055 20.2652C4.45055 29.6964 4.24301 32.0023 3.34371 33.1783C3.12169 33.4807 2.83425 33.7289 2.50284 33.9046C2.17144 34.0803 1.80463 34.1789 1.42979 34.1929C0.0231838 34.4466 0.0231838 34.4235 0.0231838 35.0461C-0.0546029 35.2543 -0.0546029 35.4836 0.0231838 35.6918H15.6343C15.7376 35.4881 15.7914 35.263 15.7914 35.0346C15.7914 34.8062 15.7376 34.5811 15.6343 34.3774C15.2561 34.2722 14.8708 34.1951 14.4813 34.1468C14.0599 34.0967 13.6435 34.0119 13.2361 33.8932C12.6527 33.4673 12.1906 32.8965 11.8954 32.2373C11.6002 31.5781 11.4821 30.8533 11.5528 30.1345C11.3222 28.6126 11.2069 25.8224 11.2069 23.5165V21.6949H12.1293C13.2784 21.6597 14.4269 21.7839 15.542 22.0638C16.0762 22.3939 16.531 22.8379 16.8738 23.3641C17.2166 23.8902 17.439 24.4856 17.5251 25.1076L17.7326 25.8224H19.1392V15.6072H17.8479L17.6404 16.5988C17.5531 17.2349 17.3178 17.8417 16.9533 18.3703C16.5889 18.8989 16.1055 19.3347 15.542 19.6426C14.9963 19.805 14.4214 19.8444 13.8587 19.7579H11.2069V17.2675C11.2069 14.6849 11.3452 9.24289 11.4375 8.3897L11.5528 7.92852ZM119.47 26.2144C118.38 24.4601 116.68 23.1707 114.697 22.5942C113.176 22.1189 111.771 21.3338 110.569 20.2882C110.298 20.0267 110.096 19.7029 109.98 19.3452C109.863 18.9875 109.836 18.6067 109.9 18.236C109.902 17.5089 110.192 16.8122 110.707 16.299C111.056 15.9334 111.498 15.6695 111.985 15.5355C112.473 15.4015 112.987 15.4024 113.474 15.538C114.482 15.8253 115.394 16.38 116.113 17.1431C116.831 17.9063 117.33 18.8496 117.556 19.8732C117.925 20.9108 117.971 20.9108 118.64 20.6341L119.055 20.4727V14.731L118.755 14.5926C116.485 13.7953 114.077 13.4659 111.676 13.6241C109.608 13.6765 107.635 14.4988 106.142 15.9301C105.464 16.5639 104.934 17.3382 104.587 18.1985C104.241 19.0589 104.087 19.9846 104.135 20.9108C104.148 22.327 104.711 23.6828 105.703 24.6925C106.801 25.7717 108.147 26.5637 109.623 26.9985C113.198 28.4051 114.235 29.3044 114.235 30.9416C114.251 31.632 114.031 32.3071 113.612 32.856C113.193 33.405 112.599 33.7951 111.929 33.9623C111.124 34.1392 110.29 34.1392 109.485 33.9623C108.431 33.5532 107.49 32.8982 106.74 32.052C105.99 31.2057 105.453 30.1926 105.173 29.0968L104.873 28.359H104.458C104.26 28.3737 104.065 28.4204 103.882 28.4973H103.651V35.0461H104.043C105.601 35.5644 107.208 35.9198 108.839 36.1068H111.145C112.145 36.1802 113.151 36.0867 114.12 35.8301C115.351 35.603 116.5 35.0579 117.455 34.2488C118.41 33.4398 119.136 32.395 119.562 31.2183C119.837 30.5611 119.978 29.8555 119.977 29.143C120.068 28.1392 119.893 27.1292 119.47 26.2144ZM97.748 14.2929C96.3662 13.7127 94.8774 13.4313 93.3792 13.467C91.881 13.5028 90.4072 13.855 89.0547 14.5004C87.7834 15.1223 86.6565 16.0038 85.747 17.0881C84.8374 18.1724 84.1654 19.4354 83.7741 20.7955C83.2754 22.2793 83.0641 23.8445 83.1515 25.4074C83.135 26.2577 83.2046 27.1075 83.3591 27.9439C83.7315 30.0003 84.7242 31.8935 86.2041 33.3692C87.6839 34.8449 89.5799 35.8324 91.6373 36.1991C92.9771 36.3679 94.3329 36.3679 95.6727 36.1991C97.063 35.954 98.3936 35.4453 99.5927 34.7002C100.585 34.1442 101.424 33.3522 102.037 32.3943C101.998 32.244 101.928 32.1032 101.833 31.9804C101.738 31.8575 101.619 31.7552 101.484 31.6795C101.22 31.7748 100.972 31.9067 100.746 32.0715C99.5988 32.8274 98.2444 33.2063 96.8718 33.1553C95.9607 33.2169 95.0473 33.075 94.1978 32.74C93.3483 32.405 92.5839 31.8852 91.9601 31.2183C91.4776 30.7701 91.0793 30.239 90.7841 29.6503C90.0676 28.2167 89.6815 26.6408 89.6542 25.0384V24.1391H102.429V23.6779C102.457 23.2172 102.457 22.7551 102.429 22.2944C102.424 20.6662 101.989 19.0682 101.167 17.6628C100.345 16.2574 99.1651 15.0947 97.748 14.2929ZM91.3145 22.2713H89.7003V20.9108C90.2307 17.4289 91.5451 15.3536 93.1592 15.3536C94.7734 15.3536 95.4651 17.4058 95.7649 21.1645V22.2252H94.3814L91.3145 22.2713ZM58.1554 13.5319C57.3586 13.501 56.5665 13.6673 55.8495 14.0161C54.291 14.773 53.0322 16.0318 52.2753 17.5903L51.9755 18.1437V13.5319H51.8602C51.5835 13.5319 43.0516 15.2383 42.7749 15.3536C42.4982 15.4689 42.5904 15.4919 42.5904 15.907C42.5904 16.3221 42.5904 16.3912 42.7749 16.4143L43.6742 16.5988C43.9261 16.6049 44.1733 16.6684 44.397 16.7842C44.6207 16.9001 44.8151 17.0653 44.9655 17.2675C45.542 18.0284 45.6573 19.3659 45.6573 25.0615C45.7712 27.6256 45.6632 30.1947 45.3345 32.7402C45.2571 33.124 45.0625 33.4744 44.7775 33.7428C44.4925 34.0113 44.1311 34.1847 43.7434 34.239L42.9594 34.4005H42.6596V35.0461C42.576 35.2612 42.576 35.4998 42.6596 35.7148H55.5497V35.0461C55.5944 34.8255 55.5944 34.5981 55.5497 34.3774C54.7736 34.3472 54.0018 34.2468 53.2438 34.0776C52.831 33.8617 52.4933 33.5258 52.2751 33.1142C52.057 32.7026 51.9686 32.2345 52.0216 31.7717C51.8372 30.4343 51.7449 26.5142 51.7911 23.5165C51.8372 20.5188 51.7911 20.3344 52.0447 20.1268C52.8163 19.5352 53.7711 19.2332 54.7426 19.2736C55.6583 19.2936 56.5574 19.5223 57.3714 19.9424C57.6535 20.099 57.9562 20.2155 58.2707 20.2882C58.2707 20.2882 60.5766 14.7079 60.5766 14.4543C60.2815 14.1114 59.9056 13.8474 59.4828 13.6864C59.0601 13.5253 58.6038 13.4722 58.1554 13.5319ZM42.6135 23.2168C42.533 21.569 42.0599 19.9642 41.2337 18.5363C40.4074 17.1084 39.2518 15.8986 37.8633 15.0077C36.2132 14.1175 34.3773 13.6266 32.5031 13.5746C30.6289 13.5225 28.7686 13.9107 27.0716 14.7079C24.6723 15.9731 22.8607 18.1239 22.0216 20.7033C21.155 23.5913 21.155 26.6701 22.0216 29.558C22.476 31.1364 23.3252 32.5728 24.489 33.7317C25.9385 35.1461 27.8075 36.0523 29.8157 36.3144C31.1047 36.4222 32.4005 36.4222 33.6896 36.3144C34.164 36.2422 34.6336 36.1421 35.0962 36.0146C36.9731 35.4896 38.6617 34.4408 39.9644 32.9912C41.2671 31.5415 42.13 29.7508 42.4521 27.8286C42.6823 26.3026 42.7365 24.7551 42.6135 23.2168ZM33.0209 34.7463C30.715 35.4381 28.9855 33.2014 28.409 28.4973C28.1973 26.0345 28.1973 23.5581 28.409 21.0953C28.8702 17.3136 30.0462 15.3997 31.8679 15.3997C32.2354 15.3769 32.6031 15.4425 32.9401 15.5909C33.2771 15.7394 33.5736 15.9663 33.8049 16.2529C35.3499 17.7978 36.1108 20.8647 36.1108 25.4766C36.3027 28.0866 35.8924 30.7058 34.9117 33.1322C34.4787 33.8399 33.8087 34.371 33.0209 34.6311V34.7463ZM74.5274 13.9931C73.8767 13.9094 73.218 13.9094 72.5674 13.9931C71.3184 13.992 70.0837 14.2594 68.9471 14.7771L68.2323 15.0769V10.073C68.3572 8.38432 68.3572 6.6887 68.2323 5C67.9555 5 59.1469 6.68332 59.0086 6.7525C58.9406 6.92274 58.9406 7.11261 59.0086 7.28286C59.0086 7.7671 59.0086 7.74404 60.0462 7.97463C60.3376 8.03997 60.6174 8.1488 60.8764 8.29746C61.3265 8.72074 61.6261 9.27941 61.7296 9.88855C61.9921 11.6434 62.0771 13.4203 61.9832 15.1922V35.4381L62.6058 35.5765C63.5282 35.784 66.1339 36.2221 66.9871 36.3144C68.6908 36.4499 70.4025 36.4499 72.1062 36.3144C73.9972 36.1212 75.7997 35.4157 77.3194 34.2739C78.8391 33.1321 80.0184 31.5973 80.7303 29.8347C81.1547 28.7035 81.4487 27.5276 81.6066 26.3297C81.7438 24.7072 81.6897 23.0741 81.4452 21.4643C81.1978 19.6597 80.4013 17.9749 79.1638 16.6384C77.9263 15.3019 76.3076 14.3783 74.5274 13.9931ZM68.4859 34.3543C68.4859 34.0546 68.2553 23.9547 68.3014 19.9193V16.7602L68.9701 16.5988C69.4213 16.5341 69.8794 16.5341 70.3306 16.5988C70.8296 16.548 71.3315 16.6614 71.7603 16.9216C72.6215 17.5159 73.3365 18.2978 73.8518 19.2085C74.367 20.1192 74.669 21.1349 74.7349 22.1791C74.9029 23.8582 74.9029 25.5499 74.7349 27.2291C74.5969 29.6695 73.6566 31.9961 72.0601 33.847C71.6069 34.2774 71.0379 34.566 70.4229 34.6772C69.9575 34.7581 69.4816 34.7581 69.0163 34.6772C68.5781 34.6772 68.5781 34.5388 68.5781 34.3543H68.4859Z" fill="#181716"/>
</g>
<defs>
<clipPath id="clip0_3714_68947">
<rect width="120" height="40" fill="white"/>
</clipPath>
</defs>
</svg>
