<svg fill="none" height="50" viewBox="0 0 107 50" width="107" xmlns="http://www.w3.org/2000/svg" xmlns:xlink="http://www.w3.org/1999/xlink"><linearGradient id="a"><stop offset="0" stop-color="#8c8c8b"/><stop offset=".5" stop-color="#9b9b9a"/><stop offset=".66" stop-color="#868686"/><stop offset="1" stop-color="#4d4d4c"/></linearGradient><linearGradient id="b" gradientUnits="userSpaceOnUse" x1="53.056" x2="53.056" xlink:href="#a" y1="42.5686" y2="50.1631"/><linearGradient id="c" gradientUnits="userSpaceOnUse" x1=".165981" x2="106.486" y1="38.5551" y2="38.5551"><stop offset="0" stop-color="#b2b2b2"/><stop offset=".5" stop-color="#575756"/><stop offset=".64" stop-color="#6e6e6d"/><stop offset=".93" stop-color="#a5a5a4"/><stop offset="1" stop-color="#b2b2b2"/></linearGradient><linearGradient id="d" gradientUnits="userSpaceOnUse" x1="53.0511" x2="53.0511" xlink:href="#a" y1=".00011" y2="13.8007"/><clipPath id="e"><path d="m0 0h106.101v50h-106.101z"/></clipPath><g clip-path="url(#e)"><path d="m8.78921 44.9538c0-1.378-.96632-2.2116-2.58592-2.2286h-6.19938375v7.2745h1.05137375v-2.6505h5.04254c.90507 0 1.44947.4525 1.44947 1.2113v1.4392h1.07179v-1.429c.01496-.3624-.08267-.7205-.27946-1.0251s-.48309-.5408-.81955-.6762c.38537-.1464.71511-.4099.94279-.7536.22768-.3436.34182-.75.32635-1.162zm-2.57911 1.4393h-5.15482v-2.722h5.15482c1.40864 0 1.51752 1.0377 1.51752 1.361 0 .3232-.10888 1.361-1.51752 1.361zm21.0582-2.2355c-.5376-1.0854-1.1501-1.5277-2.1164-1.5277s-1.606.4559-2.1231 1.5277l-2.7629 5.6584-.0885.1803h1.1297l.034-.0714.9833-2.0143h5.6482l.9833 2.0143.0341.0714h1.1398l-.0885-.1803zm-4.4641 2.7969 1.2283-2.5111c.2892-.5988.6124-.8438 1.1194-.8438s.82.245 1.1126.8438l1.2284 2.5111zm18.3396-.5921c0 2.4601 1.0683 3.6169 3.3684 3.6373h5.6959v-1.0207h-5.6142c-1.7285 0-2.3818-.7077-2.3818-2.6063 0-1.8987.6431-2.6098 2.3818-2.6098h5.6278v-1.0207h-5.6958c-2.3342.0068-3.3821 1.1262-3.3821 3.6202zm20.9867 3.6339h1.048v-7.2746h-1.048zm21.7149-1.0479c-1.0004 0-1.242-.3403-3.0623-2.7697l-.0817-.1089c-1.9632-2.6267-2.4906-3.331-4.2055-3.3481h-.8506v7.2746h1.0378v-6.2198c.9459 0 1.184.3097 2.967 2.6438l.2211.2858c1.9769 2.5859 2.5111 3.28 4.1647 3.2936h.8676v-7.2745h-1.0411v6.2266zm21.1906-2.7016v2.722h-4.607c-1.7283 0-2.3815-.7112-2.3815-2.6166s.643-2.5995 2.3815-2.5995h5.601v-1.0207h-5.682c-2.2971.0204-3.3655 1.1738-3.3655 3.627 0 2.4533 1.0684 3.6237 3.3685 3.6475h5.737v-3.7427h-1.055z" fill="url(#b)"/><path d="m27.1929 38.2305h-1.0786c-11.885 0-26.1279719.2518-26.1279719.4423s11.7590719.6431 26.1313719.6431h53.855c11.885 0 26.1283-.2518 26.1283-.4424 0-.1905-11.7594-.643-26.1317-.643z" fill="url(#c)"/><path d="m45.7032 25.073v4.4845c-.025.3602-.1856.6975-.4496.9438-.264.2464-.6116.3834-.9727.3834s-.7087-.137-.9727-.3834c-.2639-.2463-.4246-.5836-.4495-.9438v-4.4845h-2.4703v4.9642c0 1.6809 1.7387 3.0419 3.8823 3.0419s3.8823-1.361 3.8823-3.0419v-4.9608zm8.0299-5.3318v13.0589h2.4872v-13.0589zm-4.2055 13.0589h2.4872v-13.0589h-2.4872zm-12.1844-6.7778c.3401-.3062.6131-.6795.8017-1.0965.1885-.417.2886-.8685.2939-1.3261-.0014-.8322-.3216-1.6322-.8949-2.2355-.592-.6533-1.6434-1.0207-3.0622-1.0207h-4.2532v12.46h5.4917c2.1061-.0341 3.8006-1.623 3.8006-3.5727 0-1.4256-.5002-2.4362-2.1776-3.2085zm-2.0824 4.6206h-2.3817v-8.1661h1.6604c.3574.0176.6943.1725.9403.4324s.3821.6048.3799.9627c0 .3501-.1391.6859-.3867.9335s-.5834.3866-.9335.3866h-.8642v2.2389h1.5855c.4118.019.8005.1959 1.0852.4941.2847.2981.4436.6945.4436 1.1068 0 .4122-.1589.8086-.4436 1.1068-.2847.2981-.6734.4751-1.0852.4941z" fill="#e2071f"/><path d="m8.30265 24.0216c-.00899-.9843-.40815-1.9247-1.10987-2.615-.70171-.6902-1.64864-1.0738-2.6329-1.0666h-4.55597375v12.4601h2.64715375v-10.3199h1.36101c.2206-.0081.44061.0278.64717.1056.20656.0779.39552.1961.55583.3479.16031.1517.28875.3339.37781.5359s.13695.4197.14087.6404c-.01857.4508-.21539.8757-.54719 1.1813-.33179.3056-.77139.467-1.22212.4486h-.61586v2.9806l2.64376 4.083h3.12011l-3.65431-5.2059c.80646-.1907 1.52539-.6471 2.04127-1.2956.51589-.6486.79878-1.4517.80324-2.2804zm4.62745.7315c-1.0835.031-2.1122.4832-2.8677 1.2605-.75538.7773-1.17798 1.8186-1.17798 2.9025s.4226 2.1252 1.17798 2.9025c.7555.7773 1.7842 1.2295 2.8677 1.2605 1.7353 0 3.0861-.786 3.7836-2.0143l-2.0211-.9323c-.1433.2893-.3659.5318-.6418.6993-.276.1675-.5938.253-.9166.2466-.2136.0101-.4271-.0221-.6283-.0947s-.3861-.1841-.5441-.3282-.2861-.318-.3768-.5117c-.0908-.1936-.1424-.4033-.152-.617v-.102h5.4814c0-.1702.0238-.3403.0238-.524.0477-2.6744-1.7352-4.1477-4.0081-4.1477zm-1.4971 3.263c0-.4033.1602-.7902.4454-1.0754.2853-.2853.6721-.4455 1.0755-.4455s.7902.1602 1.0754.4455c.2853.2852.4455.6721.4455 1.0754zm15.393 4.7874v-13.0623h-2.4805v6.179c-.3276-.3304-.717-.593-1.1461-.7728s-.8895-.2733-1.3547-.2752c-2.0415 0-3.719 1.8238-3.719 4.083 0 2.2593 1.6638 4.083 3.719 4.083.4692-.0039.9329-.1013 1.3641-.2865.4311-.1852.821-.4545 1.1469-.792v.8676zm-4.277-1.9122c-.4023.0356-.806-.0511-1.1581-.2488-.3522-.1978-.6364-.4973-.8154-.8594-.179-.362-.2444-.7697-.1877-1.1696.0568-.3998.233-.7732.5056-1.0712s.6289-.5067 1.0221-.5987c.3933-.092.8052-.063 1.1817.0831s.7001.4026.9283.7358.3504.7276.3506 1.1315c.0204.5062-.1603.9999-.5026 1.3735-.3423.3735-.8184.5965-1.3245.6204z" fill="#e2071f"/><path d="m91.6845 26.0229c0 4.418-3.5815 7.9995-7.9995 7.9995s-7.9995-3.5815-7.9995-7.9995 3.5815-7.9995 7.9995-7.9995 7.9995 3.5815 7.9995 7.9995z" stroke="#ffd800"/><path d="m105.977 31.7149c-.011-.0231-.022-.047-.03-.0715 0-.0442 0-.0987-.024-.1531-.011-.1397-.042-.2772-.092-.4083-.047-.1042-.119-.1956-.209-.2667-.09-.071-.196-.1195-.308-.1416-.014-.0705-.042-.1375-.082-.1973-.14-.1824-.314-.335-.514-.4492l-.112-.0782-.044-.0341c-.104-.0818-.232-.1262-.364-.1259-.117.0075-.231.0399-.334.0951-.103.0551-.194.1318-.265.2248-.024-.0647-.065-.2144-.088-.2994-.024-.0851-.062-.228-.092-.3131v-.0374c-.037-.145-.113-.277-.22-.3815-.106-.1045-.24-.1774-.386-.2105-.106-.0153-.213-.0244-.32-.0273-.103.0043-.207-.0143-.303-.0544 0-.017 0-.0442.034-.0885.034-.081.062-.1639.085-.2483.105-.3427.13-.7044.075-1.0582.103.0151.206.023.31.0238.343-.0007.682-.0701.997-.2042.345-.1591.638-.4132.845-.7324.207-.3193.318-.6906.322-1.0709v-.0646c-.068-.7248-.473-1.4121-1.232-2.0892.213-.0473.416-.1326.599-.2518.278-.2009.489-.4813.605-.8044s.132-.6737.045-1.0057v-.0511c-.012-.117-.066-.2257-.153-.3054-.086-.0797-.199-.1247-.317-.1267-.119.0003-.233.0466-.319.1293l-.058.0545c-.043.0437-.09.0835-.14.119-.149.0701-.307.1183-.469.143-.15.0282-.298.0657-.443.1122-.68.2348-1.109.6023-1.276 1.0888-.048.1635-.063.3353-.042.5046.022.1692.078.3323.165.4788v.0238c.217.3153.472.6032.759.8574.367.3403.711.6805.782 1.082 0 .0715.034.2076-.207.3879-.117.0586-.247.0867-.378.0817-.226-.003-.449-.0589-.65-.1633-.309-.1644-.608-.3473-.895-.5478-.468-.3456-.982-.6239-1.5274-.8269-.2535-.1012-.517-.1754-.786-.2211-.289-.0335-.5668-.1312-.8132-.2858l-.0306-.0205c-.0919-.0578-.1838-.1258-.2722-.1905-.2836-.2315-.6078-.4081-.9562-.5206-.1274-.0401-.2584-.0675-.3912-.0816-.0985-.0043-.1949-.0298-.2825-.0749l-.1837-.1327c-.2516-.1954-.5191-.3695-.7996-.5206-.4749-.2188-.9757-.3766-1.4903-.4695-.0272 0-.0987-.0953-.1497-.1531-.0893-.1184-.1947-.2238-.313-.3131-.4009-.3657-.9176-.5788-1.4597-.6022h-.1565c-.3324.0474-.6405.2015-.8779.4389-.4457.3913-.9323.7418-1.4018 1.082-.7712.5212-1.4871 1.1198-2.1368 1.7863-.6805.7112-.9391 1.5992-1.1603 2.3818-.0306.1123-.0646.2246-.0986.3402-.0613.2144-.1157.4356-.1667.6499-.2688 1.0854-.524 2.1096-1.538 2.7697-.0795.0503-.1434.122-.1843.2068s-.0572.1793-.0471.2729c.0116.0956.0495.186.1096.2611s.14.132.2307.1642c.1249.0423.2561.063.3879.0613.0057.1108.0489.2164.1225.2994.0554.0614.1231.1103.1988.1437.0756.0335.1574.0506.2401.0503h.017c.3114-.0206.6156-.1034.8944-.2437s.5265-.3351.7286-.573c.1656.165.3724.2825.5988.3403h.0681.0749c.2315-.0389.4661-.0572.7009-.0544.2041.0646.4151.1429.6226.2211.2076.0783.3403.1225.4934.1804l.0817.0272h.0714c.1713-.0222.3346-.0859.4757-.1855s.2558-.2322.3341-.3861v-.0307-.0306c.0156-.0352.0281-.0716.0374-.1089l.0273.0953c.0451.2139.1331.4164.2586.5954.0623.0734.1401.1322.2277.1722s.1829.0602.2792.0592c.065-.0012.1298-.0069.194-.017h.0136l.0204.0238c.1049.1267.2426.2221.3981.2756.1871.0613.3743.1123.558.1599.2306.0535.4578.1205.6805.2008h.0238c.171.0642.3516.0987.5342.1021.2338.0016.4597-.0846.6329-.2416.2041-.1613.348-.3866.4083-.6397l.1361-.034c.3096-.1021.6159-.6805.6159-.6805.0203-.0388.0431-.0763.068-.1123.0752-.1063.1145-.2339.1123-.3641-.0009-.1426-.0577-.2792-.1582-.3803-.1006-.1012-.2368-.1589-.3794-.1607h-.0476c-.0239 0-.6091 0-.7758 0-.0684.003-.136.0156-.2008.0375-.0442-.0545-.0918-.1804-.1565-.211h.0238l.1634.017c.1054 0 .2109.017.3164.017.3431-.0095.6847-.0494 1.0207-.1191.288-.0334.5783-.0414.8677-.0238h.1055c.1296.0015.259.0094.3878.0238.1492.0166.2991.0257.4492.0273h.1633c.1455-.0065.2896-.0317.4287-.0749l.0511.2722.0204.0919c.0367.2437.1249.4769.2587.6839.1337.2071.31.3834.517.5172l.0885.0578c.2468.185.5377.3023.8438.3403.1407.0163.2831.0105.4221-.0171.268-.0513.544-.046.81.0155s.516.1779.735.3418l.04.0272c.05.0321.097.0685.14.1089.121.1118.26.2017.412.2654.118.0449.244.0691.371.0715.172.0024.342-.0435.489-.1327.017.0218.033.0445.048.068.084.1245.182.2387.293.3403.211.1867.487.2821.769.2654h.279.095.15c.061 0 .102-.0171.122-.0205.081.0576.177.0896.276.0919.044.0001.087-.0067.129-.0204l.487-.1599c.067-.0208.129-.0555.181-.1018.053-.0463.096-.1032.125-.167.042-.1117.058-.2317.045-.3505-.012-.1187-.052-.2329-.117-.3334zm-15.3347-2.4124-.0375-.0545c0-.0238-.0306-.0442-.051-.0748-.0656-.0891-.1215-.1849-.1667-.2858.1463 0 .2994.0306.4627.0374z" fill="#ffd800"/><path d="m83.4131 29.942-.2552-.1259c-.2234-.1695-.4031-.39-.524-.6431-.0748-.1224-.1497-.2517-.2313-.3674-.0809-.1106-.1758-.2101-.2825-.296l-.0544-.0477c-.3312-.8282-.5454-1.6985-.6363-2.5859-.0448-.3197-.1499-.628-.3096-.9085-.4608-.681-.9642-1.3322-1.5073-1.9496-.0374-.0408-.0783-.0817-.1157-.1157l-.0272-.0272-1.8034-1.5005-.0272-.0204c-.2458-.188-.5204-.3351-.8132-.4356-.5142-.1659-1.0704-.1467-1.5719.0545h-.0307c-.1565.0816-.3028.1769-.4423.2654-.1943.138-.4045.2523-.6261.3402h-.0374c-.1872.0791-.3792.1462-.575.2008-.4795.1148-.9272.3357-1.31.6465l-.245.2279c-.0952.0919-.1871.177-.2245.2042h-.0783c-.6128-.0224-1.2115.1865-1.6774.5852h-.017c-.2636.272-.5766.4914-.9221.6465-.1553.0447-.3151.0721-.4764.0816h-.017c-.2227.0133-.4437.0475-.6601.1021-.5211.1716-1.0007.4497-1.4086.8166-.1769.1361-.2926.2246-.3403.2552l-.1123.0715c-.3732.2716-.8128.4374-1.2725.4797h-.0238c-.1233-.0117-.2411-.0569-.3406-.1307-.0996-.0737-.1771-.1732-.2242-.2878-.0357-.1459-.0314-.2987.0123-.4423.0437-.1437.1252-.273.2361-.3743.1531-.1531.3402-.3062.5069-.4525.3036-.2363.5787-.5069.82-.8064.1651-.2379.2469-.5237.2328-.8129-.0142-.2892-.1235-.5657-.311-.7863-.3436-.304-.7657-.5056-1.2181-.5818h-.0341-.0748-.0238l-.1361-.0239-.2246-.0442c-.1576-.0595-.3055-.142-.4389-.245-.1094-.0797-.223-.1535-.3403-.2211l-.3402-.1804-.2076.3199c-.1582.245-.229.5364-.2007.8268v.0238c.0526.3031.1771.5891.363.8342.1859.245.4277.442.7054.5744l.0578.0239c.1176.0465.2414.0751.3675.085-.3091.2494-.5939.5273-.8506.8302-.2247.2881-.3708.6295-.4238.991-.0531.3614-.0114.7305.1209 1.071.1503.3553.3918.6645.7002.8964.3083.2318.6725.378 1.0555.4237.1127.0172.2264.0263.3403.0273.2001-.0021.3995-.0237.5954-.0647.0041.2014.0189.4024.0443.6023.0561.2427.1347.4796.2347.7077v.017c-.1415.0848-.2922.1532-.4491.2041-.1157 0-.245.0205-.3403.0273h-.1429c-.1374.015-.2657.0762-.364.1735-.1423.1743-.2476.3757-.3097.592-.0408.1089-.085.2212-.1293.3131-.0383.0559-.0854.1053-.1395.1463-.0696-.1112-.1597-.2081-.2654-.2858-.0994-.0705-.2183-.1083-.3402-.1083s-.2408.0378-.3403.1083l-.0918.0612-.0238.017c-.1517.0962-.2972.2019-.4356.3164-.1064.0952-.1802.2213-.2109.3607-.0371.0055-.0736.0146-.1089.0272-.1402.0593-.2633.1525-.3584.2713-.095.1189-.159.2595-.186.4092-.0051.1142-.0176.2278-.0374.3403l-.0238.0306c-.0909.1002-.1412.2306-.1412.3658s.0503.2656.1412.3658c.246.154.5221.2537.8098.2926h.0272.068.0306l.0953-.0375h.1293c.0813.0106.1619.0253.2416.0443.1605.0396.3247.0624.49.068.1813.0028.3605-.0405.5205-.1259.2276-.1249.4107-.3176.524-.5512.0306-.051.0579-.102.0885-.1429h.0442c.0899.0265.1822.0436.2756.0511.3822-.0034.7514-.1393 1.0446-.3845.0783-.0613.1497-.1293.2178-.1906.0689-.0665.1416-.129.2177-.1871.0898-.0305.1843-.0443.279-.0408.2026.0071.4041.0321.6023.0748.3838.1023.792.0561 1.1432-.1293.1736-.0986.3403-.1871.4866-.262h.0238l.1973-.1054c.3161-.2131.5651-.5117.718-.8609.0714-.1463.1837-.4151.2143-.4899h.1123c.2112-.0054.4216-.027.6295-.0647.1361-.0204.262-.0408.3607-.0476h.1326c.1974 0 .4798.0238.6805.0476.2008.0238.2995.0374.5342.0476h.1021.2518c.2063.0012.4101-.0454.5955-.1361.0442.0443.119.1498.1701.194h-.0238c-.0733-.0009-.1459.0134-.2132.0422-.0674.0287-.1281.0711-.1781.1245-.1786-.0593-.3686-.0757-.5546-.0476-.2289.0206-.4562.0558-.6805.1055-.0823.0121-.1603.0447-.2268.0946s-.1196.1156-.1543.1912c-.0368.0833-.0536.1742-.0488.2652.0047.091.0307.1796.076.2588.1225.2211.2416.4185.3675.6294l.0544.0919c.0524.0841.1266.1525.2146.198s.1867.0664.2856.0606h.1225l.0238.0408c.0973.2007.2352.3792.4049.524.216.1789.4885.2754.7689.2722.1245-.0007.2482-.019.3675-.0544.5475-.1578 1.0803-.3628 1.5924-.6125h.1293.1021c.2827.0072.5568-.098.7621-.2926l.0239-.0238.017-.0273c.0952-.1361.1803-.2756.262-.4151-.0016.017-.0016.0341 0 .0511.0637.159.1751.2944.3189.3876s.3129.1397.4841.133h.017c.3194-.0258.6329-.1016.9289-.2246h.017l.1157-.0408h.0272c.2787-.0927.5774-.108.8642-.0443h.0476.0477c.3407-.0328.6617-.1748.9153-.4049.2211.2365.4897.4235.7882.549.2984.1255.62.1865.9436.1792h.0783.1123.0306c.106-.0218.2021-.0773.2739-.1582.0718-.081.1154-.1831.1242-.291.0051-.0429.0051-.0863 0-.1292.0413-.0035.0823-.0104.1225-.0205.1024-.0208.196-.0723.2683-.1477.0724-.0754.12-.171.1366-.2742.0208-.1072.0062-.2183-.0417-.3165s-.1264-.1782-.2237-.2279zm-5.9578-1.1432-.0613.0544c-.1393.1184-.2638.2532-.3708.4015-.0817-.1361-.1361-.2348-.1804-.3402.1795-.0263.3546-.0767.5206-.1498h.0953c.0034.0051.0052.011.0052.0171 0 .006-.0018.0119-.0052.017z" fill="#ffd800"/><path d="m62.259 31.0237h-.0204c-.0699.0325-.1319.0797-.1818.1385-.05.0587-.0866.1276-.1074.2018-.034.4423-.0442.4899-.1667.626-.034.0375-.0579.1259-.017.1634.1661.075.3394.1331.5172.1735.0408 0 .0714-.1123.1599-.4185.0476-.1634.1021-.3403.1599-.5206 0 0 0-.0272-.034-.0851-.0341-.0578-.2144-.279-.3097-.279zm.4832 0c.0449.0405.1029.0634.1633.0647.0477-.0016.0943-.0144.1361-.0375.2158-.1598.3907-.3686.5104-.609.0272-.0749-.0578-.1429-.1667-.228-.0282-.019-.0613-.0292-.0953-.0292s-.0671.0102-.0953.0292l-.1191.0817c-.1389.0875-.2718.1842-.398.2892-.05.0484-.0793.1142-.0817.1837-.0062.0391.0022.0791.0238.1123.0377.0481.0786.0936.1225.1361zm20.4866-.7043-.2688-.1327c-.2918-.2008-.5263-.474-.6805-.7928-.0681-.1157-.1429-.2382-.2212-.3402-.0634-.0812-.1353-.1553-.2144-.2212-.055-.0423-.1031-.0928-.1429-.1497-.3555-.8856-.5846-1.8168-.6805-2.7663-.0394-.2574-.1259-.5054-.2552-.7315-.4459-.6579-.9322-1.2874-1.4562-1.885l-.1055-.1055-.0272-.0272-1.7796-1.4767c-.2154-.1684-.4583-.2985-.7179-.3845-.1796-.0615-.3682-.0926-.558-.0918-.2437-.0019-.4854.0443-.7111.1361-.1429.0748-.279.1633-.4117.2483-.2228.1561-.4639.2841-.718.3811-.2018.0859-.4086.1597-.6192.2212-.4204.0973-.8135.2881-1.1501.558l-.2415.2246c-.3063.2892-.3403.3164-.5887.3164-.5168-.0219-1.0227.1532-1.4154.49-.3031.3119-.6651.5606-1.065.7315-.187.0566-.38.0909-.5751.1021-.2102.0107-.4188.0426-.6226.0953-.4608.1616-.8851.4125-1.2487.7383-.1225.0953-.2892.2246-.3675.2756l-.1293.0817c-.4353.3123-.949.4973-1.4835.5342h-.0408c-.2084-.0156-.4079-.091-.5744-.2171-.1666-.1262-.2932-.2977-.3647-.4941-.0592-.2164-.0588-.4447.001-.661.0599-.2162.1771-.4122.3392-.5673.1634-.1633.3403-.3232.5308-.4763.2786-.2172.5319-.4648.7554-.7384.1069-.1607.1596-.3514.1504-.5443-.0092-.1928-.0798-.3776-.2015-.5275-.2958-.237-.6471-.3951-1.0207-.4593h-.0374-.0783c-.1327-.0272-.2586-.0442-.3879-.0749-.3103-.1349-.6047-.3038-.8778-.5035-.108.17-.1559.3712-.1361.5716.0431.2335.1407.4536.285.6422s.3311.3405.5452.4432l.051.0204c.1248.0475.2579.0695.3913.0646h.1769c.0867-.003.1735.0038.2586.0205.0445.0134.0844.0389.115.0738.0307.0349.051.0777.0586.1235 0 .0579-.0205.1055-.0953.1633l-.2076.1736c-.371.2828-.713.602-1.0207.9527-.1763.2324-.2899.5063-.3298.7953s-.0049.5834.1018.8549c.1235.2859.3204.5341.5708.7193.2504.1853.5453.301.8549.3355.0968.0148.1946.0228.2926.0238.3101-.0114.6177-.0616.9153-.1497h.0272s.0374 0 .0442.068c0 .1293.017.279.0204.4219 0 .2348.0204.4526.0374.5479.0518.2144.1224.424.211.626.0306.0715.051.1259.0613.1531.0142.0441.016.0912.0052.1362s-.0338.0862-.0665.119c-.2241.1769-.4825.3055-.7588.3777-.1327.017-.2756.0238-.381.0306h-.1157c-.0474.0043-.0918.0247-.1259.0579-.0928.1373-.165.2875-.2144.4457-.0476.1259-.0986.2518-.1497.3607-.1572.2174-.3667.3917-.609.5069l-.1702.1021c-.0854.1475-.1908.2826-.313.4015-.0967.0775-.2164.1206-.3402.1225-.1604.2189-.2612.4756-.2927.7451 0 .0409-.017.0817-.0272.1225v.0375h.0238c.0953 0 .1906.0306.2893.051.1315.0326.266.0519.4014.0578.1186.0029.2359-.0252.3403-.0816.151-.0908.2699-.2264.3402-.3879.0547-.1033.1222-.1993.2008-.2858.0225-.0263.0508-.0471.0827-.0607s.0664-.0196.101-.0176c.0715.0045.1423.0171.211.0375.0644.0189.1305.0314.1973.0374.2813-.0093.5512-.1137.7656-.296.0647-.0511.1293-.1123.1905-.1702.0917-.0921.192-.1753.2995-.2484.15-.0656.3127-.0969.4763-.0918.2289.0086.4566.037.6805.085.1111.0291.2254.044.3403.0443.1813.0023.3603-.041.5206-.1259l.4967-.2688.2144-.1157c.2387-.1753.4275-.4098.5478-.6805.0749-.1497.2041-.4696.2041-.473l-.296-.2245v.0204c-.0974.1626-.2041.3194-.3198.4695-.5206.7112-1.361.7996-2.0415.7996h-.1395c-.3783-.0167-.7555.0502-1.1049.1961-.3493.1459-.6622.367-.9162.6478-.0051.0058-.0114.0104-.0185.0136-.007.0031-.0146.0048-.0224.0048-.0077 0-.0153-.0017-.0224-.0048-.007-.0032-.0133-.0078-.0184-.0136-.0045-.0096-.0069-.0201-.0069-.0307s.0024-.021.0069-.0306c.0103-.0492.0287-.0963.0545-.1395.5273-.7485 1.429-.8608 2.1572-.8744.4393-.0125.8714-.1156 1.2691-.3029.4207-.2459.7357-.6384.8847-1.1024.0746-.2585.1292-.5224.1633-.7894.0277-.2094.0663-.4172.1157-.6226.0046-.0126.013-.0235.0239-.0314s.0239-.0124.0373-.0129h.017c.0272 0 .0783.0239.0817.0647-.131.4743-.131.9752 0 1.4495.0556.0989.1403.1783.2425.2276s.2171.066.3291.048c.1896-.0056.3784-.0261.5648-.0613.1463-.0238.2858-.0442.4049-.051h.1531c.2293.0081.4573.0389.6805.0919.1962.0435.3952.073.5955.0884h.1157.2177c.1366.0107.2725-.0266.3845-.1055.0612-.051.0408-.1259 0-.2245v-.017c-.0046-.0185-.0103-.0367-.017-.0545-.0408-.1293-.0987-.3198 0-.4083.016-.0111.035-.017.0544-.017.0102-.0007.0203.002.0289.0075s.0151.0136.0188.0231c0 .0375.0204.0749.034.1123.0356.1595.099.3115.1871.4491.2546.3035.5699.5504.9255.7248.1584.0949.2936.2238.396.3774s.1694.328.1961.5106c0 .1872-.1838.3199-.3165.4015-.2327.1254-.4886.2019-.7519.2246-.0944-.0079-.1843-.0434-.2586-.1021-.2076-.1905-.1838-.2586-.3199-.4831-.0706-.1255-.1514-.245-.2415-.3573-.0643-.0699-.1448-.1229-.2344-.1544-.0896-.0314-.1856-.0404-.2794-.0259-.2152.0218-.4289.057-.6397.1054-.0229.0041-.0445.0136-.0629.0278-.0183.0143-.033.0328-.0426.0539-.0122.0237-.0186.0499-.0186.0766 0 .0266.0064.0529.0186.0765.1191.2144.2382.4117.3607.6193l.0544.0918c.0171.0217.0397.0385.0654.0487s.0536.0133.0809.0092h.1974c.0407-.0055.0822-.0009.1207.0133.0386.0143.073.0377.1005.0684.0374.0578.0714.119.102.1769.0724.155.1768.293.3062.4049.1417.1167.3201.1794.5036.1769.0831-.0002.1657-.0129.245-.0374.5575-.1581 1.0986-.3689 1.6162-.6295h.1701.1123c.1792.0098.3554-.0486.4934-.1633.162-.2351.3065-.4819.4321-.7383.0546-.096.0833-.2044.0833-.3148 0-.1103-.0287-.2188-.0833-.3147-.2183-.3155-.3934-.6588-.5206-1.0208l-.1157-.0408c-.0825-.0378-.1714-.0597-.262-.0646-.1123 0-.1905.0374-.2211.102l.5954 1.1773c.0528.099.073.2121.0578.3232-.0928.2423-.2301.465-.4049.6567-.0147.0115-.0324.0186-.051.0204 0 0-.0374 0-.017-.0748.0691-.2563.1045-.5205.1055-.786-.1538-.3537-.3347-.6949-.541-1.0208-.0905-.1175-.1428-.26-.1497-.4082.0033-.0312.0157-.0608.0356-.085.02-.0242.0466-.042.0766-.0512.0845-.0279.171-.0495.2586-.0646.211-.0476.4322-.0953.5104-.2144.2463-.3836.4086-.8149.4764-1.2657 0-.0238.0204-.068.0544-.068s.0374 0 .0476.051c.0412.2494.0323.5045-.0261.7504-.0585.2459-.1652.4778-.3141.6821-.0214.0332-.0287.0736-.0204.1122.0093.0303.0285.0567.0544.0749.2849.0663.5843.0213.837-.1259.222-.0036.443-.0287.6601-.0749l.2008-.0374c.0179.0101.0321.0256.0408.0442-.1755.2007-.2931.4454-.3402.7078-.0477.051-.1055.1021-.1566.1497-.2143.15-.3629.3765-.4151.6329-.0009.0126.0008.0253.005.0372s.0108.0229.0194.0322c.0086.0092.0191.0166.0307.0216.0116.0051.0241.0077.0368.0076.0345-.0014.0683-.0108.0987-.0272.0319-.0157.0666-.025.102-.0272.0149.0027.0286.0102.039.0212s.017.025.0189.04l-.2212.3403c-.0293.0658-.0445.1371-.0445.2092s.0152.1434.0445.2093c.0238.0783 0 .1361.0341.2041.037.0762.096.1396.1694.1821.0734.0424.1577.062.2423.0561.2774-.0257.5493-.0933.8064-.2007l.1361-.0477c.3512-.1262.7309-.151 1.0956-.0714.3411-.0583.6527-.2297.8846-.4866.1344.0179.2564.0875.3403.194.1818.2015.4053.361.6551.4674.2497.1063.5196.157.7909.1484h.1225c.0613 0 .0783-.0442.0817-.0816.0034-.0375-.0306-.0919-.0987-.1225l-.3402-.1736c-.2743-.1352-.4957-.3579-.6295-.6328-.0894-.2675-.2105-.5234-.3607-.7622-.0238-.0374-.0476-.0748-.0748-.1123-.0487-.0655-.092-.1349-.1293-.2075.3647.1634.6515.4624.7996.8336.1145.1924.2734.3546.4634.473s.4056.1895.6288.2075c.0571-.0004.114-.0061.1701-.017.0209-.0032.0403-.0127.0555-.0273.0153-.0147.0256-.0336.0296-.0544.0221-.0022.0424-.0132.0564-.0304.0141-.0172.0207-.0393.0184-.0615-.0022-.0221-.0132-.0424-.0304-.0564s-.0393-.0207-.0614-.0184zm-6.3934-5.3181c0 .034-.0306.0578-.0544.0578s-.034 0-.0443-.051c-.0434-.32-.1304-.6325-.2585-.9289-.0327-.0637-.0714-.1241-.1157-.1804-.0783-.1088-.1497-.2041-.0715-.3402.0171-.0211.039-.0376.0639-.0483s.052-.0151.079-.013c.0292.0005.058.0062.0851.0171.1246.0816.2199.2008.2722.3402.1342.3682.1497.7692.0442 1.1467zm2.984 4.7635c-.0057.0701-.0331.1366-.0782.1905-.1266.063-.2672.0922-.4083.0851-.1191 0-.1599-.0204-.1838-.0578-.0238-.0375.0171-.1225.0171-.1225.042-.0919.1023-.1743.1771-.2421.0749-.0679.1628-.1198.2584-.1526.0568-.0228.1201-.0228.1769 0 .0885.0408.051.2552.0408.2994zm.8166-1.868c-.0083.0663-.0279.1308-.0578.1905-.0091.0251-.0258.0468-.0477.062-.022.0152-.0481.0233-.0748.0231-.0885 0-.0817-.1055-.0851-.1191-.0031-.1409-.026-.2806-.068-.4151-.0613-.1327-.3403-.5104-.524-.4968-.0951.0326-.1773.0946-.2348.177-.0986.1293-.0986.1463-.1293.1633-.0306.017-.0714 0-.085-.0681-.0238-.0937-.0238-.192 0-.2858.0268-.0985.0656-.1933.1157-.2824 0 0 .0884-.2041.1224-.2552.0214-.0383.0524-.0705.09-.0931.0376-.0227.0805-.0352.1244-.0362.0494-.0008.0982.0105.1421.0331.044.0225.0816.0556.1097.0962.055.0631.1019.1328.1395.2076.0525.0847.1141.1635.1837.2348.1214.1421.2098.3095.2586.4899.0286.1192.0355.2425.0204.3641zm-7.0364 2.3818c.0511.0825.0955.169.1327.2586.0681.1497.1259.2756.194.2994.0315.0054.0637.0054.0952 0 .1911-.0146.3735-.0857.524-.2042.0885-.0748.0579-.1225.0205-.1871-.0158-.0237-.0295-.0488-.0409-.0749-.0358-.0769-.0654-.1565-.0884-.2381-.0443-.1498-.0783-.2756-.2382-.2552-.231.0333-.4642.0493-.6975.0476 0 0-.0817 0-.1055.0544-.0238.0545.034.1191.1021.1804.0396.0317.075.0683.1054.1089z" fill="#e2071f"/><path d="m105.604 31.8918c-.026-.0451-.045-.0931-.058-.1429 0-.0681-.024-.1395-.034-.2076-.008-.102-.028-.2027-.062-.2994-.024-.0511-.062-.0945-.109-.1252-.048-.0306-.103-.0474-.159-.0483-.039.0009-.078.0102-.113.0272-.166.085-.265.1735-.238.3606.08.2434.146.491.198.7418 0 .0408.034.1769.098.1769l.48-.1565c.011-.0033.021-.009.03-.0166s.016-.017.021-.0276c.044-.0715-.007-.177-.054-.2824zm-.712-1.1841c-.111-.1365-.246-.2518-.398-.3403-.061-.0408-.115-.0782-.153-.1088l-.027-.0205c-.03-.0267-.069-.0413-.109-.0408-.07.0094-.136.0369-.192.0799-.057.043-.1.0999-.128.1651 0 .0919.126.2552.296.4559l.038.0443c.067.0903.167.1502.279.1667.049-.0001.097-.0102.142-.0294.045-.0193.086-.0475.12-.0829.058-.0578.197-.211.132-.2892zm-11.2483-.6805c-.0869.0106-.1744.0163-.262.017h-.2347c-.0476-.0037-.0954-.0037-.1429 0-.0903.1496-.1428.3189-.1532.4934.0239.2007.228.2415.3845.2722.0604.0136.1219.0216.1838.0238.0438.0055.0883-.0022.1278-.0222.0394-.02.0719-.0514.0933-.0901.0803-.1995.1385-.4071.1736-.6193.0047-.0089.0072-.0188.0072-.0289s-.0025-.02-.0072-.0289c-.0301-.0262-.0691-.0396-.1089-.0374zm10.8883 1.412c-.276.0171-.449-.2075-.616-.4253-.05-.0693-.105-.1352-.163-.1973-.083-.0922-.171-.1786-.266-.2586-.084-.0631-.156-.1402-.214-.228-.051-.127-.092-.2578-.123-.3913-.03-.1089-.057-.2109-.081-.2824 0 0 0-.0272 0-.0442-.051-.1327-.113-.2994-.286-.3403-.09-.012-.181-.0188-.272-.0204-.117.0103-.234-.0054-.343-.046-.11-.0406-.209-.1051-.29-.1888-.046-.0723-.07-.156-.07-.2415 0-.0856.024-.1693.07-.2416.028-.0649.051-.1321.068-.2008.095-.3049.113-.629.051-.9425 0-.0408-.024-.085-.038-.1259-.046-.1069-.064-.2243-.051-.3402.009-.0202.024-.0371.043-.0481.019-.0111.041-.0157.063-.0132.049.0028.097.012.143.0273l.092.0238c.436.1139.897.0767 1.31-.1055.273-.1232.506-.3217.671-.5724.165-.2506.256-.543.261-.843-.065-.6635-.473-1.3032-1.252-1.9565l-.058-.0476c-.102-.0851-.225-.1872-.228-.2824-.003-.0953.238-.1497.391-.1872l.096-.0238h.04c.198-.039.387-.1127.558-.2177.205-.1627.358-.3807.442-.628.084-.2474.095-.5137.031-.7671-.002-.0112-.002-.0227 0-.034 0-.0476-.023-.1055-.068-.1055-.008.0005-.015.0025-.022.006s-.013.0084-.019.0144l-.051.0477c-.064.0669-.138.1252-.217.1735-.187.0968-.388.1612-.596.1905-.132.0245-.263.0575-.391.0987-.223.0504-.431.152-.609.2966-.177.1447-.318.3285-.412.537-.03.1096-.037.2242-.02.3366.016.1124.056.2202.115.3167.196.2856.424.5471.681.7792.398.3811.81.7758.905 1.3134.023.1573-.001.318-.07.4612s-.18.2623-.318.3418c-.184.1039-.394.1556-.605.1497-.294-.003-.584-.0753-.844-.211-.324-.1722-.638-.3631-.939-.5716-.444-.3269-.931-.5913-1.4465-.786-.231-.0937-.4718-.161-.7179-.2007-.353-.0442-.6908-.17-.9867-.3675-.0987-.0647-.1974-.1361-.2892-.2042-.2462-.2028-.5276-.3586-.8303-.4593-.1111-.0336-.225-.0575-.3402-.0715-.1655-.0102-.3257-.0617-.4662-.1497l-.1973-.1429c-.2334-.1814-.4815-.343-.7418-.4831-.4462-.2028-.9159-.3491-1.3984-.4356-.1535-.0521-.2844-.1554-.3709-.2926-.0672-.0928-.1488-.1743-.2415-.2416-.329-.3121-.7585-.4967-1.2113-.5205h-.1293c-.2413.0473-.4629.1658-.6363.3402-.4594.4015-.9527.7622-1.4325 1.1058-.7506.5057-1.4472 1.0872-2.0789 1.7353-.6193.6397-.8438 1.4359-1.0616 2.2082-.0306.1123-.0646.228-.0987.3403-.0578.211-.1122.4287-.1633.6397-.2824 1.1398-.5784 2.2763-1.7012 3.0146-.0151.0097-.0271.0234-.0347.0396-.0076.0161-.0105.0341-.0084.0518.0022.0178.0093.0346.0205.0485s.0261.0244.043.0302c.1759.0494.3625.0468.537-.0075.1745-.0544.3295-.1581.4463-.2987.296-.3403.4457-.6805.7928-1.0548 0 0 .051-.0476.085-.0408.0341.0068.0341.0204.0239.0646-.0499.1457-.1247.2815-.2212.4015-.0963.1263-.1731.2662-.228.4151-.1524.3283-.3868.6119-.6805.8235-.0254.0158-.0483.0353-.068.0578-.0238.0306-.0238.0442-.0238.0442 0 .0715.051.1157.1633.1225.6363 0 1.0922-.4525 1.5311-.8914.0097-.0099.0214-.0175.0343-.0222.013-.0047.0268-.0064.0406-.0051.0234-.0062.048-.0062.0714 0 .0525.0388.1026.0808.1497.1259.1318.1407.2985.244.4832.2995.2172-.0354.4367-.0548.6567-.0579h.1735c.2314.0715.4662.1565.6805.2416.1599.0612.3403.1225.4866.1769.2109 0 .364-.2041.4763-.3811.0374-.1184.0374-.2455 0-.364-.0161-.0692-.0241-.14-.0238-.211.0487-.0158.1011-.0158.1497 0 .0498.0055.1.0055.1497 0 .0169-.0036.0329-.0105.047-.0204s.0261-.0225.0353-.0371c.0092-.0145.0154-.0308.0182-.0478s.0022-.0344-.0018-.0512c-.0485-.185-.1354-.3578-.2552-.507-.095-.1277-.1707-.2687-.2246-.4185-.0864-.1935-.2101-.3681-.364-.5138-.172-.1544-.3-.3516-.3709-.5716 0 0 0-.0476 0-.0646 0-.0171.0612 0 .0612 0 .0749.0544.1532.119.228.1803.2211.2167.4959.3705.7962.4457.2965.0401.5961.0526.8949.0375.0171-.0019.0336-.0074.0484-.0163s.0274-.0208.0371-.0351c.0097-.0142.0162-.0304.0191-.0473.0028-.017.002-.0344-.0026-.0511-.133-.2658-.2401-.5438-.3198-.8302-.1306-.4093-.1517-.8457-.0612-1.2657.0032-.0165.0121-.0314.0251-.0419.0131-.0106.0295-.0163.0463-.016.0238.0096.0445.0254.0601.0458.0155.0203.0254.0445.0284.0699v.0579c.0408.609.0816 1.1841.4559 1.6774.0983.1377.2293.2487.3811.3233.1018.0475.194.1132.2722.1939.0381.0538.0616.1166.0681.1822.0066.0656-.004.1318-.0307.1921l-.4559.6805c-.1129.1455-.1982.3104-.2518.4865-.0237.1636-.0237.3298 0 .4934v.0374c-.0153-.0081-.0274-.0213-.034-.0374-.0834-.12-.1384-.2575-.1608-.4019s-.0116-.2921.0315-.4317c.0612-.1395.4321-.6805.541-.8404.034-.0545.0612-.1123.034-.1497-.1166-.0814-.2486-.1381-.3879-.1668-.0627.026-.1144.0729-.1463.1327l-.0238.0375-.5648 1.0207v.0374c-.0423.0975-.0541.2054-.0341.3097.0312.1481.0698.2946.1157.4389 0 .034.0205.068.0273.1021.0323.1557.0922.3043.1769.4389.0237.028.0535.0502.0871.0649.0337.0147.0702.0216.1068.0202.0431.0031.0863.0031.1293 0 .0676-.0117.1366-.0117.2042 0 .0813.0287.1523.0808.2041.1497.0564.0747.1332.1314.2212.1633.1735.0578.3402.1055.5342.1531.2408.0585.4782.13.7111.2144.1313.0473.2689.0748.4083.0816.0692.001.1379-.0117.2021-.0374.0643-.0257.1228-.0639.1722-.1123.1574-.1261.2608-.3073.2892-.507.0374-.1939.1021-.2075.2416-.2143.0499.0021.0996-.006.1463-.0238.1604-.1289.2906-.2916.3811-.4764l.0884-.1497c.0273-.0378.0427-.0828.0443-.1293 0-.0182-.0036-.0361-.0107-.0529-.0071-.0167-.0174-.0319-.0304-.0446-.013-.0126-.0284-.0226-.0453-.0292-.0169-.0067-.035-.0099-.0531-.0094h-.0341s-.6022 0-.7655 0c-.2484 0-.3403.2518-.4423.4593-.0297.0773-.065.1524-.1055.2246-.0342.0593-.084.1082-.144.1412s-.1279.0489-.1963.0459c-.0679-.008-.135-.0217-.2007-.0408-.3403-.0782-.6601-.1633-.7962-.4831-.0142-.0448-.0173-.0924-.009-.1386.0083-.0463.0277-.0898.0566-.1268.192-.2324.405-.4465.6363-.6397.1729-.042.3357-.1181.4789-.2239.1431-.1057.2637-.239.3547-.392.0352-.0528.0606-.1116.0749-.1735.0181-.091.0674-.1729.1395-.2314.0544-.0272.0952-.017.1054.0273.014.17-.0189.3407-.0952.4933l-.0409.1055v.0272h.0273c.0918.0052.1838.0052.2756 0 .3236-.0091.6458-.0467.9629-.1123.3125-.0654.6302-.1029.9493-.1123h.1055c.1463 0 .2858.0001.4219.0239.1118.0149.2242.0251.3368.0306h.1395c.172.0112.3431-.0321.4891-.1237.146-.0917.2594-.2269.3241-.3867.0866-.4357.0773-.885-.0272-1.3168.0011-.017.0011-.034 0-.051 0-.0238 0-.0476.0306-.0612.0307-.0137.0817 0 .0987.051.1431.4245.2434.8622.2994 1.3066.0696.3798.2192.7405.439 1.0581.1497.222.3528.4028.5906.5258.2378.1231.5028.1845.7708.1786.131-.0052.261-.0189.391-.0409.061-.0063.123-.0063.184 0 .347-.0016.691.0782 1.002.233s.582.3803.791.6585c.002.0042.003.0089.003.0136s-.001.0094-.003.0136c-.002.0069-.006.0134-.01.019-.005.0055-.01.01-.017.0132-.006.0033-.013.0051-.02.0054-.008.0003-.015-.0009-.021-.0036l-.062-.0476c-.373-.3501-.836-.5913-1.337-.6975-.096-.0168-.194-.0248-.292-.0238-.148.0026-.296.0139-.443.034-.137.0184-.276.0286-.415.0306-.162.0026-.3221-.0263-.4728-.085-.284-.1267-.5403-.3082-.754-.5342s-.3807-.4919-.4913-.7826c-.0061-.012-.0153-.0221-.0267-.0293s-.0245-.0112-.0379-.0116c-.0183.0011-.0359.0069-.0511.0171-.068.0442-.0816.068-.0918.1088.0136.1604.0386.3196.0748.4764.0215.2049.0879.4025.1943.5789s.2503.3272.4216.4418c.2204.1815.4864.2991.7689.3403.0881.012.1774.012.2654 0 .1516-.0341.3076-.0513.4626-.051.512.0048 1.008.1715 1.419.4763.071.0438.138.0939.201.1497.086.083.186.1498.296.1974.072.0267.148.0417.224.0442.135-.0021.266-.0461.375-.1259.049-.0252.104-.0392.16-.0408.153 0 .238.1191.34.2722.069.1034.149.1992.238.2858.135.1113.308.1662.483.1531h.249.224.075v-.0204c-.012-.3153-.086-.625-.218-.9119zm-15.9921-1.429c-.0208.0282-.0489.0503-.0812.0641-.0323.0137-.0677.0186-.1025.0141-.0732.0006-.1451-.0195-.2075-.0578-.0601-.0467-.1085-.1066-.1415-.175-.0331-.0685-.0499-.1437-.0491-.2197-.0044-.0237-.0019-.0481.0071-.0704s.0243-.0416.044-.0555c.0234-.0143.051-.0203.0782-.017.1448.0108.2799.0765.3777.1837 0 0 .1259.1838.0544.3165zm.1566-2.5179c-.0153.0282-.0402.05-.0702.0612-.03.0113-.0631.0113-.0932.0001-.0618-.0331-.1108-.0858-.1395-.1498-.0408-.068-.0714-.1292-.1633-.1224-.0777.0107-.1501.0452-.2075.0986-.0341.0272-.1633.1225-.1974.1531-.187.1237-.3281.3054-.4015.5172 0 .0749 0 .0749-.0238.1123-.001.0361-.0094.0716-.0246.1044s-.0369.0621-.0639.0862h-.034c-.0289-.0004-.0567-.0113-.0782-.0307-.0117-.0079-.0212-.0185-.0278-.031-.0065-.0125-.0098-.0264-.0097-.0404-.0195-.1696.0011-.3415.0602-.5016.0591-.1602.155-.3043.2801-.4205.1584-.1406.301-.2981.4253-.4696.0612-.0816.1259-.1633.1939-.2415.0681-.0783.1327 0 .2722.1429.1276.1768.2349.3674.3199.5682.0038.0256.0025.0518-.0039.0769-.0064.0252-.0178.0488-.0335.0694zm3.0044-4.2157-.2144.1973c-.2578.2182-.4865.4687-.6805.7452-.0787.1144-.146.2364-.2007.3641 0 0-.0204.0408-.0477.0408-.0142-.0006-.0276-.0067-.0374-.017-.0335-.1886-.0147-.3828.0545-.5614.1853-.4377.4894-.8149.8778-1.0888.0462-.028.0991-.0433.1531-.0443.0341-.0022.068.006.0972.0237.0292.0176.0523.0438.0661.075.0161.0456.0156.0954-.0011.1407-.0168.0454-.0489.0835-.0907.1077z" fill="#e2071f"/><path d="m45.8038 8.98277h7.0091l-3.7019-5.97823-6.805 10.79276h-3.1065l8.2851-12.953361c.1809-.26267.4234-.476951.7064-.624069.283-.147117.5977-.22258105.9166-.21975955.3131-.00335011.6223.06955415.9009.21241855.2786.142864.5183.351397.6983.60759l8.3021 12.977181h-3.0963l-1.4597-2.4056h-7.0976l-1.5482-2.40213m32.1607 2.40213v-11.255481h-2.6336v12.357981c.0013.169.0363.3361.1029.4915s.1635.296.285.4135c.1244.1276.2731.2288.4373.2978.1642.0689.3407.1042.5188.1037h11.9701l1.5583-2.4124h-12.2491m-43.4671-2.01425c1.2033-.03266 2.3464-.53362 3.1859-1.39628.8396-.86265 1.3093-2.01888 1.3093-3.22264 0-1.20375-.4697-2.35999-1.3093-3.22264-.8395-.862653-1.9826-1.363608-3.1859-1.396271h-11.4869v13.664481h2.6267v-11.2555h8.7071c.5865 0 1.1491.23301 1.5638.64777.4148.41476.6478.9773.6478 1.56386 0 .58657-.233 1.1491-.6478 1.56387-.4147.41476-.9773.64777-1.5638.64777h-7.4107l7.8462 6.83223h3.8108l-5.2705-4.42325h1.1977m-27.65908 4.42325h7.94148c1.812 0 3.5498-.7198 4.8311-2.0011s2.0012-3.0191 2.0012-4.83113-.7199-3.54984-2.0012-4.83113c-1.2813-1.281299-3.0191-2.001121-4.8311-2.001121h-7.95509c-.89722 0-1.78566.176713-2.61459.520066s-1.58211.846615-2.21654 1.481055c-.63444.63443-1.137697 1.38761-1.48105 2.21654-.343353.82892-.52007062 1.71737-.52007062 2.61459 0 .89723.17671762 1.78567.52007062 2.6146s.84661 1.58213 1.48105 2.21653c.63443.6344 1.38761 1.1377 2.21654 1.4811.82893.3433 1.71737.52 2.61459.52m7.76459-2.409h-7.58766c-1.17312 0-2.2982-.466-3.12772-1.2955-.82953-.82953-1.29555-1.9546-1.29555-3.12773 0-1.17312.46602-2.2982 1.29555-3.12772.82952-.82953 1.9546-1.29555 3.12772-1.29555h7.58766c1.1731 0 2.2982.46602 3.1277 1.29555.8295.82952 1.2955 1.9546 1.2955 3.12772 0 1.17313-.466 2.2982-1.2955 3.12773-.8295.8295-1.9546 1.2955-3.1277 1.2955zm49.8911 2.4056h8.1082l1.5447-2.4056h-9.476c-1.1731 0-2.2982-.466-3.1277-1.2955-.8295-.82953-1.2956-1.9546-1.2956-3.12773 0-1.17312.4661-2.2982 1.2956-3.12772.8295-.82953 1.9546-1.29555 3.1277-1.29555h7.7033l1.555-2.415792h-9.4318c-.9103-.020313-1.8155.141437-2.6624.475748s-1.6185.834454-2.2694 1.471054c-.651.6366-1.1682 1.39684-1.5213 2.23608-.3532.83924-.5351 1.74057-.5351 2.65107 0 .91051.1819 1.81184.5351 2.65109.3531.83925.8703 1.59945 1.5213 2.23605.6509.6366 1.4225 1.1368 2.2694 1.4711s1.7521.496 2.6624.4757m32.1266-2.4056c-.9632.0001-1.9001-.3142-2.6684-.8951-.7683-.58099-1.3259-1.39684-1.5882-2.32363h11.2288l1.548-2.40899h-12.7768c.2623-.9268.8199-1.74265 1.5882-2.32361s1.7052-.89527 2.6684-.89517h7.7102l1.541-2.415792h-9.4248c-1.812 0-3.5498.719832-4.8311 2.001132-1.2813 1.28129-2.0011 3.0191-2.0011 4.83113s.7198 3.54983 2.0011 4.83113 3.0191 2.0011 4.8311 2.0011h8.1078l1.542-2.4056h-9.4762" fill="url(#d)"/></g></svg>