<?xml version="1.0" encoding="utf-8"?>
<!-- Generator: Adobe Illustrator 28.0.0, SVG Export Plug-In . SVG Version: 6.00 Build 0)  -->
<svg version="1.1" id="Layer_1" xmlns="http://www.w3.org/2000/svg" xmlns:xlink="http://www.w3.org/1999/xlink" x="0px" y="0px"
	 viewBox="0 0 114 26" style="enable-background:new 0 0 114 26;" xml:space="preserve">
<style type="text/css">
	.st0{fill:#BA68C8;}
</style>
<path class="st0" d="M23.7,25.3H3.6c-1.3,0-2.6-0.7-3.2-1.9C-0.3,22,0,20.4,1,19.3l14-14H5c-2.8,0-5-2.2-5-5h18.5
	c1.3,0,2.6,0.7,3.2,1.9c0.7,1.4,0.4,3-0.6,4.1l-14,14h11.6C21.5,20.3,23.7,22.5,23.7,25.3z M103.3,0c-2.9,0-5.5,1.2-7.2,3.2
	c-1.8-2-4.4-3.2-7.2-3.2c-5.3,0-9.7,4.6-9.7,9.9v15.4c2.8,0,5-2.2,5-5V9.8c0-2.6,2-4.7,4.5-4.9c2.7-0.1,4.9,2.1,4.9,4.7v10.6
	c0,2.8,2.2,5,5,5V9.8c0-2.6,2-4.7,4.5-4.9c2.7-0.1,4.9,2.1,4.9,4.7v10.6c0,2.8,2.2,5,5,5V9.9C113,4.6,108.6,0,103.3,0z M48.9,12.8
	c0,7.1-5.8,12.8-12.8,12.8c-7.1,0-12.8-5.8-12.8-12.8C23.2,5.8,29,0,36,0C43.1,0,48.9,5.8,48.9,12.8z M43.9,12.8
	C43.9,8.5,40.4,5,36,5c-4.3,0-7.9,3.5-7.9,7.8s3.5,7.8,7.9,7.8C40.4,20.7,43.9,17.2,43.9,12.8z M76.6,12.8c0,7.1-5.8,12.8-12.8,12.8
	c-7.1,0-12.8-5.8-12.8-12.8C50.9,5.8,56.6,0,63.7,0S76.6,5.8,76.6,12.8z M71.6,12.8C71.6,8.5,68,5,63.7,5s-7.9,3.5-7.9,7.8
	s3.5,7.8,7.9,7.8C68,20.7,71.6,17.2,71.6,12.8z"/>
</svg>
